<svg xmlns="http://www.w3.org/2000/svg" width="512" height="512" fill="none" viewBox="0 0 512 512">
  <g opacity=".97">
    <circle cx="256" cy="256" r="256" fill="#000"/>
    <path fill="#FF9800" d="M272.601 352v-25.504c30.232-1.656 50.44-9.336 53.136-38.048 2.112-23.04-8.672-33.32-25.784-37.456l.008-.016c10.312-5.32 16.872-14.768 15.352-30.488-1.992-21.504-19.504-28.712-42.712-30.72V160h-18.049v28.952c-4.688 0-9.488.12-14.296.24v-29.184h-18.048v29.776c-6.632.2-14.36.104-36.208 0v19.376c14.248-.256 21.72-1.176 23.432 8.032v81.528c-1.088 7.312-6.888 6.256-19.8 6.024L186 326.368c32.904 0 36.208.12 36.208.12v25.504h18.048v-25.144c4.765.099 9.531.139 14.296.12V352h18.049Zm-31.985-141.552c10.192 0 42.073-3.192 42.073 18.2 0 20.44-31.881 18.08-42.073 18.08v-36.28Zm0 94.4v-39.936c12.184 0 49.505-3.424 49.505 19.968 0 22.568-37.321 19.968-49.505 19.968Z"/>
  </g>
  <path fill="#FF9800" d="M89.354 256.479A166.182 166.182 0 0 1 202.623 98.946V62.384A201.184 201.184 0 0 0 54.381 256.48a201.187 201.187 0 0 0 148.242 194.094v-36.562a166.18 166.18 0 0 1-82.011-60.52 166.181 166.181 0 0 1-31.258-97.012Zm217.16-194.667V98.26a166.267 166.267 0 0 1 83.33 256.068 166.267 166.267 0 0 1-83.33 60.369v36.448a201.26 201.26 0 0 0 150.16-194.666 201.262 201.262 0 0 0-150.16-194.667Z"/>
</svg>
