<svg xmlns="http://www.w3.org/2000/svg" width="512" height="512" fill="none" viewBox="0 0 512 512">
  <circle cx="256" cy="256" r="256" fill="#000" opacity=".97"/>
  <path fill="#FF9800" d="M89.354 256.479A166.182 166.182 0 0 1 202.623 98.946V62.384A201.184 201.184 0 0 0 54.381 256.48a201.187 201.187 0 0 0 148.242 194.094v-36.562a166.18 166.18 0 0 1-82.011-60.52 166.181 166.181 0 0 1-31.258-97.012Zm217.16-194.667V98.26a166.267 166.267 0 0 1 83.33 256.068 166.267 166.267 0 0 1-83.33 60.369v36.448a201.26 201.26 0 0 0 150.16-194.666 201.262 201.262 0 0 0-150.16-194.667Z"/>
  <path fill="#F89401" d="M274.104 229.229v-20.648h46.842V176H190.923v32.581h46.973v20.648C198.543 231.127 169 239.049 169 248.54c0 9.49 29.51 17.363 68.896 19.311V336h36.208v-68.149C313.457 265.969 343 258.047 343 248.54s-29.51-17.413-68.896-19.311ZM256 261.678c-42.611 0-77.158-6.602-77.158-14.558 0-6.849 25.165-12.593 59.021-14.128v23.322c5.826.264 11.883.412 18.104.412s12.311-.148 18.105-.412v-23.322c33.855 1.535 59.02 7.279 59.02 14.128.066 8.038-34.481 14.558-77.092 14.558Z"/>
</svg>
