<svg xmlns="http://www.w3.org/2000/svg" width="2004" height="398" fill="none" viewBox="0 0 2004 398">
  <path fill="#010101" d="M686.649 136.655h45.932v88.14c9.621-5.276 20.328-9.466 32.121-12.57 11.897-3.103 24.362-4.655 37.397-4.655 15.104 0 28.656 2.224 40.656 6.673 12.104 4.448 22.345 10.862 30.725 19.241 8.379 8.276 14.793 18.363 19.241 30.26 4.552 11.896 6.828 25.293 6.828 40.19v90.001h-45.777v-88.139c0-8.69-1.396-16.604-4.189-23.742-2.794-7.241-6.88-13.448-12.259-18.621-5.38-5.172-11.949-9.155-19.707-11.948-7.656-2.897-16.346-4.345-26.07-4.345-11.69 0-22.552 1.862-32.587 5.586-10.034 3.724-18.827 8.431-26.379 14.121v127.088h-45.932v-257.28ZM555.681 245.278h-44.224v-34.449h44.224V153.88h45.932v56.949h44.225v34.449h-44.225v148.657h-45.932V245.278Zm-109.553-59.432c-4.552 0-8.69-.621-12.414-1.862-3.621-1.345-6.724-3.104-9.311-5.276-2.586-2.276-4.603-4.863-6.051-7.759a22.881 22.881 0 0 1-2.018-9.466c0-3.414.673-6.569 2.018-9.465 1.448-3.001 3.465-5.587 6.051-7.759 2.587-2.173 5.69-3.88 9.311-5.121 3.724-1.345 7.862-2.017 12.414-2.017 4.655 0 8.793.672 12.414 2.017 3.724 1.241 6.879 2.948 9.465 5.121 2.587 2.172 4.552 4.758 5.897 7.759 1.448 2.896 2.173 6.051 2.173 9.465a21.51 21.51 0 0 1-2.173 9.466c-1.345 2.896-3.31 5.483-5.897 7.759-2.586 2.172-5.741 3.931-9.465 5.276-3.621 1.241-7.759 1.862-12.414 1.862Zm-22.966 24.983h45.932v183.106h-45.932V210.829ZM0 151.397h53.69l65.795 156.571 15.207 37.863 11.948-37.863 24.208-57.104-43.605-99.467h50.587l17.846 47.328 16.603-47.328h50.587l-43.604 99.467 24.673 58.346 14.897 36.621 11.483-37.242 66.104-157.192h53.691L283.039 393.935h-48.725l-21.569-48.104-17.535-46.708-17.535 46.708-21.879 48.104h-48.725L0 151.397ZM1795.85 136.5h45.93v152.071l85.66-77.742h70.29l-95.74 85.656 101.79 97.45h-68.89l-68.13-65.949-24.98 22.345v43.604h-45.93V136.5Zm-267.68 74.329h45.93v15.517c12.21-6.931 23.85-11.793 34.92-14.586 11.17-2.793 22.09-4.19 32.74-4.19 13.97 0 26.9 2.069 38.79 6.207 11.9 4.035 22.19 10.087 30.88 18.156 8.69 8.069 15.47 18.155 20.33 30.259 4.97 12 7.45 25.914 7.45 41.742v90.001h-45.78v-82.553c0-10.034-1.44-18.983-4.34-26.845-2.79-7.966-6.88-14.638-12.26-20.018-5.28-5.482-11.74-9.62-19.4-12.414-7.55-2.896-16.03-4.345-25.45-4.345-4.96 0-10.08.518-15.36 1.552a92.925 92.925 0 0 0-15.36 4.5c-4.97 1.862-9.78 4.242-14.43 7.138-4.66 2.794-8.9 6-12.73 9.621v123.364h-45.93V210.829ZM1255.38 336.21c0-8.793 1.91-16.81 5.74-24.052 3.82-7.241 9.57-13.448 17.22-18.621 7.66-5.276 17.17-9.31 28.55-12.104 11.49-2.896 24.83-4.344 40.04-4.344 11.27 0 23.12.827 35.53 2.482 12.52 1.656 25.4 4.19 38.64 7.604-.52-5.793-2.27-11.121-5.27-15.983-3-4.966-7.19-9.207-12.57-12.724-5.28-3.621-11.69-6.414-19.24-8.38-7.45-1.965-15.94-2.948-25.45-2.948-5.18 0-10.87.31-17.07.931-6.21.621-12.62 1.552-19.24 2.793a217.248 217.248 0 0 0-19.71 4.655c-6.42 1.862-12.42 4.087-18 6.673l-13.97-37.708c6.93-2.483 14.33-4.758 22.19-6.827a308.997 308.997 0 0 1 24.36-5.276 293.003 293.003 0 0 1 24.83-3.569c8.28-.828 16.3-1.242 24.05-1.242 34.25 0 59.7 8.742 76.35 26.225 16.66 17.483 24.98 44.276 24.98 80.38v79.76h-45.93v-17.224c-4.76 2.793-9.98 5.431-15.67 7.914-5.59 2.483-11.69 4.655-18.31 6.517-6.62 1.862-13.76 3.311-21.42 4.345-7.55 1.138-15.56 1.707-24.05 1.707-14.27 0-26.84-1.552-37.7-4.655-10.76-3.104-19.76-7.397-27.01-12.88-7.24-5.483-12.72-11.897-16.44-19.242-3.62-7.448-5.43-15.517-5.43-24.207Zm48.41-1.552c0 3.001.78 5.897 2.33 8.69 1.55 2.69 4.03 5.121 7.45 7.293 3.41 2.069 7.75 3.776 13.03 5.121 5.38 1.242 11.85 1.862 19.4 1.862 8.07 0 15.88-.724 23.43-2.172 7.55-1.448 14.59-3.362 21.1-5.742 6.52-2.379 12.42-5.12 17.69-8.224 5.28-3.103 9.68-6.31 13.19-9.621v-8.069a265.95 265.95 0 0 0-20.95-4.965c-6.82-1.345-13.39-2.38-19.7-3.104-6.21-.827-12.11-1.396-17.69-1.707-5.49-.31-10.3-.465-14.43-.465-8.59 0-15.73.569-21.42 1.707-5.69 1.138-10.29 2.689-13.81 4.655-3.52 1.862-6 4.086-7.45 6.672-1.45 2.587-2.17 5.276-2.17 8.069ZM978.078 151.397h129.572c15.83 0 29.59 1.707 41.28 5.121 11.79 3.31 21.56 7.914 29.32 13.81 7.76 5.897 13.5 12.931 17.23 21.104 3.83 8.069 5.74 16.811 5.74 26.225 0 15.414-4.86 28.914-14.59 40.5 11.18 6.621 19.5 15.207 24.99 25.759 5.48 10.552 8.22 22.552 8.22 36.001 0 11.276-1.91 21.466-5.74 30.569-3.73 9.104-9.47 16.914-17.23 23.432-7.65 6.414-17.38 11.379-29.17 14.896-11.69 3.414-25.5 5.121-41.43 5.121H978.078V151.397Zm148.502 93.105c4.24 0 8.38.155 12.41.465 6.94-6.62 10.4-14.172 10.4-22.655 0-8.793-3.46-15.569-10.4-20.328-6.82-4.862-16.86-7.293-30.1-7.293h-81.62v49.811h99.31Zm.93 106.605c13.24 0 23.28-2.845 30.11-8.535 6.93-5.689 10.39-13.707 10.39-24.052 0-10.345-3.46-18.414-10.39-24.207-6.83-5.793-16.87-8.69-30.11-8.69h-100.24v65.484h100.24Z"/>
  <path fill="#D9B730" d="M1976.72 89.68c-9.2 0-16.05-2.4-20.53-7.198-4.48-4.877-6.73-12.311-6.73-22.302v-4.72c0-10.148 1.85-17.582 5.55-22.302 3.78-4.799 9.6-7.198 17.46-7.198 7.95 0 13.77 2.4 17.47 7.198 3.7 4.72 5.54 12.154 5.54 22.302v6.372h-41.41v-7.67h34.33l-2.12 2.714v-1.062c0-7.71-1.1-13.255-3.3-16.638-2.13-3.461-5.63-5.192-10.51-5.192-4.87 0-8.41 1.73-10.62 5.192-2.12 3.383-3.18 8.929-3.18 16.638v4.012c0 5.428.59 9.755 1.77 12.98 1.18 3.147 3.14 5.428 5.9 6.844 2.75 1.337 6.45 2.006 11.09 2.006 2.28 0 4.6-.157 6.96-.472 2.44-.315 5.04-.826 7.79-1.534v8.142c-2.36.55-4.92.983-7.67 1.298-2.67.393-5.27.59-7.79.59Zm-58.29 0c-18.17 0-27.26-9.833-27.26-29.5v-4.72c0-19.667 9.13-29.5 27.38-29.5 5.11 0 9.75.63 13.92 1.888V52.51h-9.2V29.264l4.48 6.726a25.065 25.065 0 0 0-5.19-1.298 28.944 28.944 0 0 0-5.19-.472c-5.82 0-10.07 1.73-12.75 5.192-2.67 3.461-4.01 9.007-4.01 16.638v3.54c0 5.27.59 9.519 1.77 12.744 1.26 3.225 3.27 5.546 6.02 6.962 2.75 1.416 6.41 2.124 10.97 2.124 2.21 0 4.37-.157 6.49-.472 2.13-.315 4.33-.826 6.61-1.534v8.378c-2.12.55-4.36.983-6.72 1.298-2.36.393-4.8.59-7.32.59Zm-86.02-59.944c2.99-1.337 6.17-2.281 9.56-2.832 3.38-.63 7.19-.944 11.44-.944 5.98 0 10.62.669 13.93 2.006 3.38 1.337 5.74 3.658 7.08 6.962 1.41 3.225 2.12 7.71 2.12 13.452V88.5h-9.2V48.852c0-3.855-.4-6.844-1.18-8.968-.79-2.124-2.21-3.58-4.25-4.366-1.97-.865-4.76-1.298-8.38-1.298-1.81 0-3.5.118-5.07.354-1.58.236-3.15.63-4.72 1.18-1.58.472-3.31 1.22-5.2 2.242l3.07-5.9V88.5h-9.2V29.736Zm-35.64 59.944c-7.86 0-14.04-1.77-18.52-5.31-4.49-3.619-6.73-8.535-6.73-14.75 0-6.53 2.48-11.446 7.43-14.75 5.04-3.304 12.43-4.956 22.19-4.956h10.62v7.67h-10.5c-6.85 0-11.96.983-15.34 2.95-3.31 1.967-4.96 4.956-4.96 8.968 0 3.776 1.38 6.765 4.13 8.968 2.75 2.203 6.53 3.304 11.33 3.304 2.52 0 4.95-.315 7.31-.944 2.44-.63 4.49-1.455 6.14-2.478l-2.6 5.428V48.616c0-4.012-.31-7.08-.94-9.204-.63-2.124-1.89-3.54-3.78-4.248-1.81-.787-4.48-1.18-8.02-1.18-2.28 0-4.48.118-6.61.354-2.12.236-4.25.63-6.37 1.18-2.12.472-4.37 1.14-6.73 2.006v-8.142c2.76-1.101 5.9-1.927 9.44-2.478 3.62-.63 7.36-.944 11.21-.944 5.35 0 9.56.669 12.63 2.006 3.07 1.337 5.23 3.658 6.49 6.962 1.26 3.225 1.89 7.71 1.89 13.452v37.524c-2.44 1.18-5.47 2.085-9.09 2.714-3.62.708-7.16 1.062-10.62 1.062Zm-82.36-59.944c2.99-1.337 6.17-2.281 9.56-2.832 3.38-.63 7.19-.944 11.44-.944 5.98 0 10.62.669 13.93 2.006 3.38 1.337 5.74 3.658 7.08 6.962 1.41 3.225 2.12 7.71 2.12 13.452V88.5h-9.2V48.852c0-3.855-.4-6.844-1.18-8.968-.79-2.124-2.21-3.58-4.25-4.366-1.97-.865-4.76-1.298-8.38-1.298-1.81 0-3.5.118-5.07.354-1.58.236-3.15.63-4.72 1.18-1.58.472-3.31 1.22-5.2 2.242l3.07-5.9V88.5h-9.2V29.736ZM1678.65 88.5V35.4h-21.24v-8.26h30.68V88.5h-9.44Zm2.84-72.452c-2.52 0-4.57-.708-6.14-2.124-1.5-1.495-2.24-3.461-2.24-5.9 0-2.517.74-4.484 2.24-5.9C1676.92.708 1678.97 0 1681.49 0c2.51 0 4.52.708 6.01 2.124 1.58 1.416 2.36 3.383 2.36 5.9 0 2.439-.78 4.405-2.36 5.9-1.49 1.416-3.5 2.124-6.01 2.124ZM1599.24 88.5V2.36h42.48v8.26h-32.8v29.382h31.62v8.26h-31.62V88.5h-9.68Z"/>
</svg>
