<svg xmlns="http://www.w3.org/2000/svg" width="2004" height="398" fill="none" viewBox="0 0 2004 398">
  <path fill="#fff" d="M686.675 137.155h45.932v88.14c9.621-5.276 20.328-9.466 32.121-12.57 11.897-3.103 24.363-4.655 37.397-4.655 15.104 0 28.656 2.224 40.656 6.673 12.104 4.448 22.345 10.862 30.725 19.241 8.379 8.276 14.793 18.363 19.242 30.26 4.551 11.896 6.827 25.293 6.827 40.19v90.001h-45.776v-88.139c0-8.69-1.397-16.604-4.19-23.742-2.793-7.241-6.879-13.448-12.259-18.621-5.379-5.172-11.948-9.155-19.707-11.948-7.655-2.897-16.345-4.345-26.069-4.345-11.69 0-22.553 1.862-32.587 5.586-10.035 3.724-18.828 8.431-26.38 14.121v127.088h-45.932v-257.28ZM555.708 245.778h-44.225v-34.449h44.225V154.38h45.932v56.949h44.224v34.449H601.64v148.657h-45.932V245.778Zm-109.554-59.432c-4.552 0-8.69-.621-12.414-1.862-3.621-1.345-6.724-3.104-9.31-5.276-2.587-2.276-4.604-4.862-6.052-7.759a22.88 22.88 0 0 1-2.017-9.466c0-3.414.672-6.569 2.017-9.465 1.448-3 3.465-5.587 6.052-7.759 2.586-2.173 5.689-3.879 9.31-5.121 3.724-1.345 7.862-2.017 12.414-2.017 4.655 0 8.793.672 12.414 2.017 3.724 1.242 6.88 2.948 9.466 5.121 2.586 2.172 4.552 4.759 5.896 7.759 1.449 2.896 2.173 6.051 2.173 9.465 0 3.311-.724 6.466-2.173 9.466-1.344 2.897-3.31 5.483-5.896 7.759-2.586 2.172-5.742 3.931-9.466 5.276-3.621 1.241-7.759 1.862-12.414 1.862Zm-22.966 24.983h45.932v183.106h-45.932V211.329ZM.026 151.897h53.69l65.795 156.571 15.207 37.863 11.949-37.863 24.207-57.104-43.604-99.467h50.587l17.845 47.328 16.604-47.328h50.587l-43.604 99.467 24.672 58.346 14.897 36.621 11.483-37.242 66.105-157.192h53.69L283.065 394.435H234.34l-21.569-48.104-17.535-46.708-17.534 46.708-21.88 48.104h-48.725L.027 151.897ZM1795.88 137h45.93v152.071l85.65-77.742h70.3l-95.74 85.656 101.79 97.45h-68.9l-68.12-65.949-24.98 22.345v43.604h-45.93V137Zm-267.68 74.329h45.93v15.517c12.21-6.931 23.85-11.793 34.92-14.586 11.17-2.793 22.08-4.19 32.74-4.19 13.96 0 26.89 2.069 38.79 6.207 11.9 4.035 22.19 10.087 30.88 18.156 8.69 8.069 15.47 18.155 20.33 30.259 4.96 12 7.45 25.914 7.45 41.742v90.001h-45.78v-82.553c0-10.034-1.45-18.983-4.34-26.845-2.8-7.966-6.88-14.638-12.26-20.017-5.28-5.483-11.75-9.621-19.4-12.414-7.55-2.897-16.04-4.345-25.45-4.345-4.96 0-10.09.517-15.36 1.551a92.925 92.925 0 0 0-15.36 4.5c-4.97 1.863-9.78 4.242-14.43 7.138a73.416 73.416 0 0 0-12.73 9.621v123.364h-45.93V211.329ZM1255.4 336.71c0-8.793 1.92-16.81 5.74-24.052 3.83-7.241 9.57-13.448 17.23-18.621 7.65-5.276 17.17-9.31 28.55-12.103 11.48-2.897 24.83-4.345 40.03-4.345 11.28 0 23.13.827 35.54 2.482 12.52 1.656 25.4 4.19 38.64 7.604-.52-5.793-2.28-11.121-5.28-15.983-3-4.966-7.19-9.207-12.57-12.724-5.27-3.621-11.69-6.414-19.24-8.38-7.45-1.965-15.93-2.948-25.45-2.948-5.17 0-10.86.31-17.07.931-6.2.621-12.62 1.552-19.24 2.793a218.381 218.381 0 0 0-19.71 4.655c-6.41 1.862-12.41 4.087-18 6.673l-13.96-37.708c6.93-2.482 14.33-4.758 22.19-6.827a308.025 308.025 0 0 1 24.36-5.276 292.423 292.423 0 0 1 24.83-3.569c8.28-.828 16.29-1.242 24.05-1.242 34.24 0 59.69 8.742 76.35 26.225 16.65 17.483 24.98 44.276 24.98 80.38v79.76h-45.93v-17.224c-4.76 2.793-9.98 5.431-15.67 7.914-5.59 2.483-11.69 4.655-18.31 6.517-6.63 1.862-13.76 3.311-21.42 4.345-7.55 1.138-15.57 1.707-24.05 1.707-14.28 0-26.85-1.552-37.71-4.655-10.76-3.104-19.76-7.397-27-12.88-7.24-5.483-12.72-11.896-16.45-19.241-3.62-7.449-5.43-15.518-5.43-24.208Zm48.42-1.551c0 3 .77 5.896 2.32 8.689 1.56 2.69 4.04 5.121 7.45 7.294 3.42 2.069 7.76 3.776 13.04 5.12 5.38 1.242 11.84 1.862 19.39 1.862 8.07 0 15.88-.724 23.44-2.172 7.55-1.448 14.58-3.362 21.1-5.741 6.52-2.38 12.41-5.121 17.69-8.225 5.27-3.103 9.67-6.31 13.19-9.621v-8.069a267.456 267.456 0 0 0-20.95-4.965c-6.83-1.345-13.4-2.38-19.71-3.104-6.2-.827-12.1-1.396-17.69-1.707-5.48-.31-10.29-.465-14.43-.465-8.58 0-15.72.569-21.41 1.707-5.69 1.138-10.3 2.689-13.81 4.655-3.52 1.862-6 4.086-7.45 6.672-1.45 2.587-2.17 5.276-2.17 8.07ZM978.104 151.897h129.576c15.82 0 29.58 1.707 41.27 5.121 11.79 3.31 21.57 7.914 29.33 13.81 7.76 5.897 13.5 12.932 17.22 21.104 3.83 8.069 5.75 16.811 5.75 26.225 0 15.414-4.87 28.914-14.59 40.5 11.17 6.621 19.5 15.207 24.98 25.759 5.49 10.552 8.23 22.552 8.23 36.001 0 11.276-1.92 21.466-5.74 30.569-3.73 9.104-9.47 16.914-17.23 23.432-7.65 6.414-17.38 11.379-29.17 14.897-11.69 3.413-25.5 5.12-41.43 5.12H978.104V151.897Zm148.506 93.105c4.24 0 8.38.155 12.41.465 6.93-6.62 10.4-14.172 10.4-22.655 0-8.793-3.47-15.569-10.4-20.328-6.83-4.862-16.86-7.293-30.1-7.293h-81.63v49.811h99.32Zm.93 106.605c13.24 0 23.27-2.845 30.1-8.535 6.93-5.689 10.4-13.707 10.4-24.052 0-10.345-3.47-18.414-10.4-24.207-6.83-5.793-16.86-8.69-30.1-8.69h-100.25v65.484h100.25Z"/>
  <path fill="#D9B730" d="M1976.75 90.18c-9.21 0-16.05-2.4-20.53-7.198-4.49-4.877-6.73-12.311-6.73-22.302v-4.72c0-10.148 1.85-17.582 5.55-22.302 3.77-4.799 9.59-7.198 17.46-7.198 7.95 0 13.77 2.4 17.46 7.198 3.7 4.72 5.55 12.154 5.55 22.302v6.372h-41.42v-7.67h34.34l-2.12 2.714v-1.062c0-7.71-1.11-13.255-3.31-16.638-2.12-3.461-5.62-5.192-10.5-5.192s-8.42 1.73-10.62 5.192c-2.12 3.383-3.19 8.929-3.19 16.638v4.012c0 5.428.59 9.755 1.77 12.98 1.18 3.147 3.15 5.428 5.9 6.844 2.76 1.337 6.45 2.006 11.1 2.006 2.28 0 4.6-.157 6.96-.472 2.44-.315 5.03-.826 7.79-1.534v8.142c-2.36.55-4.92.983-7.67 1.298-2.68.393-5.27.59-7.79.59Zm-58.29 0c-18.18 0-27.26-9.833-27.26-29.5v-4.72c0-19.667 9.12-29.5 27.37-29.5 5.12 0 9.76.63 13.93 1.888V53.01h-9.21V29.764l4.49 6.726a25.065 25.065 0 0 0-5.19-1.298 29.054 29.054 0 0 0-5.2-.472c-5.82 0-10.07 1.73-12.74 5.192-2.67 3.461-4.01 9.007-4.01 16.638v3.54c0 5.27.59 9.519 1.77 12.744 1.26 3.225 3.26 5.546 6.02 6.962 2.75 1.416 6.41 2.124 10.97 2.124 2.2 0 4.37-.157 6.49-.472 2.12-.315 4.33-.826 6.61-1.534v8.378c-2.13.55-4.37.983-6.73 1.298-2.36.393-4.8.59-7.31.59Zm-86.03-59.944c2.99-1.337 6.18-2.281 9.56-2.832 3.38-.63 7.2-.944 11.45-.944 5.98 0 10.62.669 13.92 2.006 3.38 1.337 5.74 3.658 7.08 6.962 1.42 3.225 2.13 7.71 2.13 13.452V89h-9.21V49.352c0-3.855-.39-6.844-1.18-8.968-.78-2.124-2.2-3.58-4.25-4.366-1.96-.865-4.76-1.298-8.37-1.298-1.81 0-3.5.118-5.08.354-1.57.236-3.14.63-4.72 1.18-1.57.472-3.3 1.22-5.19 2.242l3.07-5.9V89h-9.21V30.236ZM1796.8 90.18c-7.87 0-14.04-1.77-18.53-5.31-4.48-3.619-6.72-8.535-6.72-14.75 0-6.53 2.47-11.446 7.43-14.75 5.03-3.304 12.43-4.956 22.18-4.956h10.62v7.67h-10.5c-6.84 0-11.96.983-15.34 2.95-3.3 1.967-4.95 4.956-4.95 8.968 0 3.776 1.37 6.765 4.13 8.968 2.75 2.203 6.53 3.304 11.32 3.304 2.52 0 4.96-.315 7.32-.944 2.44-.63 4.48-1.455 6.14-2.478l-2.6 5.428V49.116c0-4.012-.31-7.08-.94-9.204-.63-2.124-1.89-3.54-3.78-4.248-1.81-.787-4.48-1.18-8.02-1.18-2.29 0-4.49.118-6.61.354-2.13.236-4.25.63-6.37 1.18-2.13.472-4.37 1.14-6.73 2.006v-8.142c2.75-1.101 5.9-1.927 9.44-2.478 3.62-.63 7.36-.944 11.21-.944 5.35 0 9.56.669 12.63 2.006 3.06 1.337 5.23 3.658 6.49 6.962 1.25 3.225 1.88 7.71 1.88 13.452v37.524c-2.43 1.18-5.46 2.085-9.08 2.714-3.62.708-7.16 1.062-10.62 1.062Zm-82.37-59.944c2.99-1.337 6.18-2.281 9.56-2.832 3.38-.63 7.2-.944 11.45-.944 5.98 0 10.62.669 13.92 2.006 3.38 1.337 5.74 3.658 7.08 6.962 1.42 3.225 2.13 7.71 2.13 13.452V89h-9.21V49.352c0-3.855-.39-6.844-1.18-8.968-.78-2.124-2.2-3.58-4.25-4.366-1.96-.865-4.76-1.298-8.37-1.298-1.81 0-3.5.118-5.08.354-1.57.236-3.14.63-4.72 1.18-1.57.472-3.3 1.22-5.19 2.242l3.07-5.9V89h-9.21V30.236ZM1678.68 89V35.9h-21.24v-8.26h30.68V89h-9.44Zm2.83-72.452c-2.52 0-4.56-.708-6.13-2.124-1.5-1.495-2.25-3.461-2.25-5.9 0-2.517.75-4.484 2.25-5.9 1.57-1.416 3.61-2.124 6.13-2.124s4.53.708 6.02 2.124c1.57 1.416 2.36 3.383 2.36 5.9 0 2.439-.79 4.405-2.36 5.9-1.49 1.416-3.5 2.124-6.02 2.124ZM1599.27 89V2.86h42.48v8.26h-32.81v29.382h31.63v8.26h-31.63V89h-9.67Z"/>
</svg>
