<svg xmlns="http://www.w3.org/2000/svg" width="2493" height="450" fill="none" viewBox="0 0 2493 450">
  <path stroke="url(#a)" stroke-miterlimit="10" stroke-width="4" d="M435.588 436.028H130.836c-64.537 0-116.904-52.367-116.904-117.065V14.212h304.752c64.537 0 116.904 52.367 116.904 117.064v304.752Z"/>
  <path fill="url(#b)" d="M66.62 393.75c11.05 9.608 24.02 17.135 38.273 21.619V29.746H66.619V393.75Z"/>
  <path fill="url(#c)" d="M137.723 420.494h32.348V29.746h-38.434v390.588c2.029.106 4.057.16 6.086.16Z"/>
  <path fill="url(#d)" d="M212.509 420.494h32.349V29.746h-38.434v390.588c2.028.106 4.057.16 6.085.16Z"/>
  <path fill="url(#e)" d="M278.809 420.494h32.188V29.746h-38.274v390.588c1.922.106 3.95.16 6.086.16Z"/>
  <path fill="url(#f)" d="M348.471 36.152v384.182c2.028.107 4.057.16 6.085.16h32.349V60.014a109.52 109.52 0 0 0-38.434-23.862Z"/>
  <path fill="url(#g)" d="M85.676 215.511c-10.57 0-19.057 8.648-19.057 19.218V393.75c11.05 9.609 24.022 17.135 38.274 21.619v-180.64c0-10.57-8.487-19.218-19.217-19.218Z"/>
  <path fill="url(#h)" d="M85.676 215.511c-10.57 0-19.057 8.648-19.057 19.218V393.75c11.05 9.609 24.022 17.135 38.274 21.619v-180.64c0-10.57-8.487-19.218-19.217-19.218Z"/>
  <path fill="url(#i)" d="M367.688 179.799c-10.57 0-19.217 8.488-19.217 19.057v221.638h38.434V198.856c0-10.569-8.648-19.057-19.217-19.057Z"/>
  <path fill="url(#j)" d="M150.854 104.692c-10.569 0-19.217 8.648-19.217 19.217v296.585h38.434V123.909c0-10.569-8.647-19.217-19.217-19.217Z"/>
  <path fill="url(#k)" d="M150.854 104.692c-10.569 0-19.217 8.648-19.217 19.217v296.585h38.434V123.909c0-10.569-8.647-19.217-19.217-19.217Z"/>
  <path fill="url(#l)" d="M291.78 230.885a19 19 0 0 0-19.057 19.057v170.552h38.274V249.942c0-10.57-8.487-19.057-19.217-19.057Z"/>
  <path fill="url(#m)" d="M291.78 230.885a19 19 0 0 0-19.057 19.057v170.552h38.274V249.942c0-10.57-8.487-19.057-19.217-19.057Z"/>
  <path fill="url(#n)" d="M224.84 149.212c-10.729 0-19.217 8.648-19.217 19.218v252.064h38.274V168.43c0-10.57-8.487-19.218-19.057-19.218Z"/>
  <path fill="url(#o)" d="M224.84 149.212c-10.729 0-19.217 8.648-19.217 19.218v252.064h38.274V168.43c0-10.57-8.487-19.218-19.057-19.218Z"/>
  <path fill="#fff" d="M1175.68 180.155h45.93v88.14c9.62-5.276 20.33-9.466 32.12-12.57 11.9-3.103 24.36-4.655 37.4-4.655 15.1 0 28.65 2.224 40.65 6.673 12.11 4.448 22.35 10.862 30.73 19.241 8.38 8.276 14.79 18.363 19.24 30.26 4.55 11.896 6.83 25.293 6.83 40.19v90.001h-45.78v-88.139c0-8.69-1.4-16.604-4.19-23.742-2.79-7.241-6.88-13.448-12.26-18.621-5.38-5.172-11.95-9.155-19.71-11.948-7.65-2.897-16.34-4.345-26.07-4.345-11.69 0-22.55 1.862-32.58 5.586-10.04 3.724-18.83 8.431-26.38 14.121v127.088h-45.93v-257.28Zm-130.97 108.623h-44.23v-34.449h44.23V197.38h45.93v56.949h44.22v34.449h-44.22v148.657h-45.93V288.778Zm-109.556-59.432c-4.551 0-8.689-.621-12.414-1.862-3.62-1.345-6.724-3.104-9.31-5.276-2.586-2.276-4.604-4.862-6.052-7.759a22.88 22.88 0 0 1-2.017-9.466c0-3.414.672-6.569 2.017-9.465 1.448-3 3.466-5.587 6.052-7.759 2.586-2.173 5.69-3.879 9.31-5.121 3.725-1.345 7.863-2.017 12.414-2.017 4.656 0 8.794.672 12.414 2.017 3.724 1.242 6.88 2.948 9.466 5.121 2.586 2.172 4.552 4.759 5.897 7.759 1.448 2.896 2.172 6.051 2.172 9.465 0 3.311-.724 6.466-2.172 9.466-1.345 2.897-3.311 5.483-5.897 7.759-2.586 2.172-5.742 3.931-9.466 5.276-3.62 1.241-7.758 1.862-12.414 1.862Zm-22.966 24.983h45.932v183.106h-45.932V254.329Zm-423.162-59.432h53.691l65.794 156.571 15.207 37.863 11.949-37.863 24.207-57.104-43.604-99.467h50.587l17.845 47.328 16.604-47.328h50.587l-43.604 99.467 24.672 58.346 14.897 36.621 11.483-37.242 66.105-157.192h53.69L772.065 437.435h-48.724l-21.57-48.104-17.535-46.708-17.534 46.708-21.88 48.104h-48.725L489.026 194.897ZM2284.88 180h45.93v152.071l85.65-77.742h70.3l-95.74 85.656 101.79 97.45h-68.9l-68.12-65.949-24.98 22.345v43.604h-45.93V180Zm-267.68 74.329h45.93v15.517c12.21-6.931 23.85-11.793 34.92-14.586 11.17-2.793 22.08-4.19 32.74-4.19 13.96 0 26.89 2.069 38.79 6.207 11.9 4.035 22.19 10.087 30.88 18.156 8.69 8.069 15.47 18.155 20.33 30.259 4.96 12 7.45 25.914 7.45 41.742v90.001h-45.78v-82.553c0-10.034-1.45-18.983-4.34-26.845-2.8-7.966-6.88-14.638-12.26-20.017-5.28-5.483-11.75-9.621-19.4-12.414-7.55-2.897-16.04-4.345-25.45-4.345-4.96 0-10.09.517-15.36 1.551a92.925 92.925 0 0 0-15.36 4.5c-4.97 1.863-9.78 4.242-14.43 7.138a73.416 73.416 0 0 0-12.73 9.621v123.364h-45.93V254.329ZM1744.4 379.71c0-8.793 1.92-16.81 5.74-24.052 3.83-7.241 9.57-13.448 17.23-18.621 7.65-5.276 17.17-9.31 28.55-12.103 11.48-2.897 24.83-4.345 40.03-4.345 11.28 0 23.13.827 35.54 2.482 12.52 1.656 25.4 4.19 38.64 7.604-.52-5.793-2.28-11.121-5.28-15.983-3-4.966-7.19-9.207-12.57-12.724-5.27-3.621-11.69-6.414-19.24-8.38-7.45-1.965-15.93-2.948-25.45-2.948-5.17 0-10.86.31-17.07.931-6.2.621-12.62 1.552-19.24 2.793a218.381 218.381 0 0 0-19.71 4.655c-6.41 1.862-12.41 4.087-18 6.673l-13.96-37.708c6.93-2.482 14.33-4.758 22.19-6.827a308.025 308.025 0 0 1 24.36-5.276 292.423 292.423 0 0 1 24.83-3.569c8.28-.828 16.29-1.242 24.05-1.242 34.24 0 59.69 8.742 76.35 26.225 16.65 17.483 24.98 44.276 24.98 80.38v79.76h-45.93v-17.224c-4.76 2.793-9.98 5.431-15.67 7.914-5.59 2.483-11.69 4.655-18.31 6.517-6.63 1.862-13.76 3.311-21.42 4.345-7.55 1.138-15.57 1.707-24.05 1.707-14.28 0-26.85-1.552-37.71-4.655-10.76-3.104-19.76-7.397-27-12.88-7.24-5.483-12.72-11.896-16.45-19.241-3.62-7.449-5.43-15.518-5.43-24.208Zm48.42-1.551c0 3 .77 5.896 2.32 8.689 1.56 2.69 4.04 5.121 7.45 7.294 3.42 2.069 7.76 3.776 13.04 5.12 5.38 1.242 11.84 1.862 19.39 1.862 8.07 0 15.88-.724 23.44-2.172 7.55-1.448 14.58-3.362 21.1-5.741 6.52-2.38 12.41-5.121 17.69-8.225 5.27-3.103 9.67-6.31 13.19-9.621v-8.069a267.456 267.456 0 0 0-20.95-4.965c-6.83-1.345-13.4-2.38-19.71-3.104-6.2-.827-12.1-1.396-17.69-1.707-5.48-.31-10.29-.465-14.43-.465-8.58 0-15.72.569-21.41 1.707-5.69 1.138-10.3 2.689-13.81 4.655-3.52 1.862-6 4.086-7.45 6.672-1.45 2.587-2.17 5.276-2.17 8.07ZM1467.1 194.897h129.58c15.82 0 29.58 1.707 41.27 5.121 11.79 3.31 21.57 7.914 29.33 13.81 7.76 5.897 13.5 12.932 17.22 21.104 3.83 8.069 5.75 16.811 5.75 26.225 0 15.414-4.87 28.914-14.59 40.5 11.17 6.621 19.5 15.207 24.98 25.759 5.49 10.552 8.23 22.552 8.23 36.001 0 11.276-1.92 21.466-5.74 30.569-3.73 9.104-9.47 16.914-17.23 23.432-7.65 6.414-17.38 11.379-29.17 14.897-11.69 3.413-25.5 5.12-41.43 5.12h-148.2V194.897Zm148.51 93.105c4.24 0 8.38.155 12.41.465 6.93-6.62 10.4-14.172 10.4-22.655 0-8.793-3.47-15.569-10.4-20.328-6.83-4.862-16.86-7.293-30.1-7.293h-81.63v49.811h99.32Zm.93 106.605c13.24 0 23.27-2.845 30.1-8.535 6.93-5.689 10.4-13.707 10.4-24.052 0-10.345-3.47-18.414-10.4-24.207-6.83-5.793-16.86-8.69-30.1-8.69h-100.25v65.484h100.25Z"/>
  <path fill="#D9B730" d="M2465.75 133.18c-9.21 0-16.05-2.399-20.53-7.198-4.49-4.877-6.73-12.311-6.73-22.302v-4.72c0-10.148 1.85-17.582 5.55-22.302 3.77-4.799 9.59-7.198 17.46-7.198 7.95 0 13.77 2.4 17.46 7.198 3.7 4.72 5.55 12.154 5.55 22.302v6.372h-41.42v-7.67h34.34l-2.12 2.714v-1.062c0-7.71-1.11-13.255-3.31-16.638-2.12-3.461-5.62-5.192-10.5-5.192s-8.42 1.73-10.62 5.192c-2.12 3.383-3.19 8.929-3.19 16.638v4.012c0 5.428.59 9.755 1.77 12.98 1.18 3.147 3.15 5.428 5.9 6.844 2.76 1.337 6.45 2.006 11.1 2.006 2.28 0 4.6-.157 6.96-.472 2.44-.315 5.03-.826 7.79-1.534v8.142c-2.36.551-4.92.983-7.67 1.298-2.68.393-5.27.59-7.79.59Zm-58.29 0c-18.18 0-27.26-9.833-27.26-29.5v-4.72c0-19.667 9.12-29.5 27.37-29.5 5.12 0 9.76.63 13.93 1.888V96.01h-9.21V72.764l4.49 6.726a25.065 25.065 0 0 0-5.19-1.298 29.054 29.054 0 0 0-5.2-.472c-5.82 0-10.07 1.73-12.74 5.192-2.67 3.461-4.01 9.007-4.01 16.638v3.54c0 5.271.59 9.519 1.77 12.744 1.26 3.225 3.26 5.546 6.02 6.962 2.75 1.416 6.41 2.124 10.97 2.124 2.2 0 4.37-.157 6.49-.472 2.12-.315 4.33-.826 6.61-1.534v8.378c-2.13.551-4.37.983-6.73 1.298-2.36.393-4.8.59-7.31.59Zm-86.03-59.944c2.99-1.337 6.18-2.281 9.56-2.832 3.38-.63 7.2-.944 11.45-.944 5.98 0 10.62.669 13.92 2.006 3.38 1.337 5.74 3.658 7.08 6.962 1.42 3.225 2.13 7.71 2.13 13.452V132h-9.21V92.352c0-3.855-.39-6.844-1.18-8.968-.78-2.124-2.2-3.58-4.25-4.366-1.96-.865-4.76-1.298-8.37-1.298-1.81 0-3.5.118-5.08.354-1.57.236-3.14.63-4.72 1.18-1.57.472-3.3 1.22-5.19 2.242l3.07-5.9V132h-9.21V73.236Zm-35.63 59.944c-7.87 0-14.04-1.77-18.53-5.31-4.48-3.619-6.72-8.535-6.72-14.75 0-6.529 2.47-11.446 7.43-14.75 5.03-3.304 12.43-4.956 22.18-4.956h10.62v7.67h-10.5c-6.84 0-11.96.983-15.34 2.95-3.3 1.967-4.95 4.956-4.95 8.968 0 3.776 1.37 6.765 4.13 8.968 2.75 2.203 6.53 3.304 11.32 3.304 2.52 0 4.96-.315 7.32-.944 2.44-.629 4.48-1.455 6.14-2.478l-2.6 5.428V92.116c0-4.012-.31-7.08-.94-9.204-.63-2.124-1.89-3.54-3.78-4.248-1.81-.787-4.48-1.18-8.02-1.18-2.29 0-4.49.118-6.61.354-2.13.236-4.25.63-6.37 1.18-2.13.472-4.37 1.14-6.73 2.006v-8.142c2.75-1.101 5.9-1.927 9.44-2.478 3.62-.63 7.36-.944 11.21-.944 5.35 0 9.56.669 12.63 2.006 3.06 1.337 5.23 3.658 6.49 6.962 1.25 3.225 1.88 7.71 1.88 13.452v37.524c-2.43 1.18-5.46 2.085-9.08 2.714-3.62.708-7.16 1.062-10.62 1.062Zm-82.37-59.944c2.99-1.337 6.18-2.281 9.56-2.832 3.38-.63 7.2-.944 11.45-.944 5.98 0 10.62.669 13.92 2.006 3.38 1.337 5.74 3.658 7.08 6.962 1.42 3.225 2.13 7.71 2.13 13.452V132h-9.21V92.352c0-3.855-.39-6.844-1.18-8.968-.78-2.124-2.2-3.58-4.25-4.366-1.96-.865-4.76-1.298-8.37-1.298-1.81 0-3.5.118-5.08.354-1.57.236-3.14.63-4.72 1.18-1.57.472-3.3 1.22-5.19 2.242l3.07-5.9V132h-9.21V73.236ZM2167.68 132V78.9h-21.24v-8.26h30.68V132h-9.44Zm2.83-72.452c-2.52 0-4.56-.708-6.13-2.124-1.5-1.495-2.25-3.461-2.25-5.9 0-2.517.75-4.484 2.25-5.9 1.57-1.416 3.61-2.124 6.13-2.124s4.53.708 6.02 2.124c1.57 1.416 2.36 3.383 2.36 5.9 0 2.439-.79 4.405-2.36 5.9-1.49 1.416-3.5 2.124-6.02 2.124ZM2088.27 132V45.86h42.48v8.26h-32.81v29.382h31.63v8.26h-31.63V132h-9.67Z"/>
  <defs>
    <linearGradient id="a" x1="61.226" x2="-119.189" y1="569.089" y2="61.59" gradientUnits="userSpaceOnUse">
      <stop stop-color="#FAD338" stop-opacity=".3"/>
      <stop offset="1" stop-color="#FAD338"/>
    </linearGradient>
    <linearGradient id="b" x1="2024.29" x2="2024.29" y1="14.519" y2="267.83" gradientUnits="userSpaceOnUse">
      <stop stop-color="#FDFEFE" stop-opacity="0"/>
      <stop offset="1" stop-color="#fff" stop-opacity=".3"/>
    </linearGradient>
    <linearGradient id="c" x1="2140.84" x2="2140.84" y1="14.519" y2="267.83" gradientUnits="userSpaceOnUse">
      <stop stop-color="#FDFEFE" stop-opacity="0"/>
      <stop offset="1" stop-color="#fff" stop-opacity=".3"/>
    </linearGradient>
    <linearGradient id="d" x1="2215.61" x2="2215.61" y1="14.519" y2="267.83" gradientUnits="userSpaceOnUse">
      <stop stop-color="#FDFEFE" stop-opacity="0"/>
      <stop offset="1" stop-color="#fff" stop-opacity=".3"/>
    </linearGradient>
    <linearGradient id="e" x1="2281.81" x2="2281.81" y1="14.519" y2="267.83" gradientUnits="userSpaceOnUse">
      <stop stop-color="#FDFEFE" stop-opacity="0"/>
      <stop offset="1" stop-color="#fff" stop-opacity=".3"/>
    </linearGradient>
    <linearGradient id="f" x1="2293.04" x2="2293.04" y1="21.167" y2="270.33" gradientUnits="userSpaceOnUse">
      <stop stop-color="#FDFEFE" stop-opacity="0"/>
      <stop offset="1" stop-color="#fff" stop-opacity=".3"/>
      <stop offset="1" stop-color="#fff" stop-opacity="0"/>
    </linearGradient>
    <linearGradient id="g" x1="606.463" x2="606.463" y1="215.111" y2="411.1" gradientUnits="userSpaceOnUse">
      <stop stop-color="#DFF0FF"/>
      <stop offset="1" stop-color="#58C5EF"/>
    </linearGradient>
    <linearGradient id="h" x1="838.252" x2="838.252" y1="210.175" y2="416.207" gradientUnits="userSpaceOnUse">
      <stop stop-color="#FAD235"/>
      <stop offset="1" stop-color="#0C0E12"/>
    </linearGradient>
    <linearGradient id="i" x1="1123.33" x2="1123.33" y1="173.373" y2="421.503" gradientUnits="userSpaceOnUse">
      <stop stop-color="#FAD235"/>
      <stop offset="1" stop-color="#0C0E12"/>
    </linearGradient>
    <linearGradient id="j" x1="1450.74" x2="1450.74" y1="108.448" y2="433.089" gradientUnits="userSpaceOnUse">
      <stop stop-color="#ACFAE2"/>
      <stop offset="1" stop-color="#3098C9"/>
    </linearGradient>
    <linearGradient id="k" x1="906.499" x2="906.499" y1="96.26" y2="421.817" gradientUnits="userSpaceOnUse">
      <stop stop-color="#FAD235"/>
      <stop offset="1" stop-color="#0C0E12"/>
    </linearGradient>
    <linearGradient id="l" x1="760.712" x2="760.712" y1="230.182" y2="412.237" gradientUnits="userSpaceOnUse">
      <stop stop-color="#ACFAE2"/>
      <stop offset="1" stop-color="#3098C9"/>
    </linearGradient>
    <linearGradient id="m" x1="1044.36" x2="1044.36" y1="225.822" y2="421.288" gradientUnits="userSpaceOnUse">
      <stop stop-color="#FAD235"/>
      <stop offset="1" stop-color="#0C0E12"/>
    </linearGradient>
    <linearGradient id="n" x1="1184" x2="1184" y1="150.186" y2="453.943" gradientUnits="userSpaceOnUse">
      <stop stop-color="#FFF2FE"/>
      <stop offset="1" stop-color="#F05EC7"/>
    </linearGradient>
    <linearGradient id="o" x1="977.256" x2="977.256" y1="141.969" y2="421.631" gradientUnits="userSpaceOnUse">
      <stop stop-color="#FAD235"/>
      <stop offset="1" stop-color="#0C0E12"/>
    </linearGradient>
  </defs>
</svg>
